<svg width="35" height="36" viewBox="0 0 35 36" fill="none" xmlns="http://www.w3.org/2000/svg">
<path d="M14.5914 2.61514C8.27508 2.61514 3.14258 7.95403 3.14258 14.5243C3.14258 21.0946 8.27508 26.4335 14.5914 26.4335C17.0906 26.4335 19.4003 25.5962 21.2839 24.1787L30.1441 33.3733L32.0382 31.403L23.2832 22.2741C25.0037 20.1889 26.0402 17.4825 26.0402 14.5243C26.0402 7.95403 20.9077 2.61514 14.5914 2.61514ZM14.5914 4.01622C20.179 4.01622 24.6933 8.71204 24.6933 14.5243C24.6933 20.3366 20.179 25.0324 14.5914 25.0324C9.00379 25.0324 4.4895 20.3366 4.4895 14.5243C4.4895 8.71204 9.00379 4.01622 14.5914 4.01622Z" fill="black"/>
</svg>
