<svg width="12" height="13" viewBox="0 0 12 13" fill="none" xmlns="http://www.w3.org/2000/svg">
<mask id="mask0_129_704" style="mask-type:luminance" maskUnits="userSpaceOnUse" x="0" y="0" width="12" height="13">
<path d="M12 0.325195H0.0297852V12.4495H12V0.325195Z" fill="white"/>
</mask>
<g mask="url(#mask0_129_704)">
<path d="M0.0297852 6.38745C0.0297852 6.69701 0.219961 6.94199 0.459961 6.94199H10.48L6.56006 11.5338C6.40006 11.7402 6.40006 12.0884 6.56006 12.2948C6.72006 12.5011 6.9899 12.5011 7.1499 12.2948L11.79 6.85177C11.79 6.85177 11.8501 6.813 11.8701 6.7743C11.9501 6.67112 11.9902 6.52933 11.9902 6.38745C11.9902 6.24557 11.9501 6.10363 11.8701 6.00044C11.8401 5.96175 11.8098 5.94877 11.7798 5.92298L7.14014 0.479974C6.98014 0.273602 6.7098 0.273602 6.5498 0.479974C6.3898 0.686345 6.3898 1.03455 6.5498 1.24092L10.4702 5.83276H0.450195C0.210195 5.83276 0.0200195 6.0779 0.0200195 6.38745" fill="black"/>
</g>
</svg>
