<svg width="12" height="14" viewBox="0 0 12 14" fill="none" xmlns="http://www.w3.org/2000/svg">
<path d="M0 6.99976C0 7.30931 0.190176 7.55429 0.430176 7.55429H10.4502L6.53027 12.1461C6.37027 12.3525 6.37027 12.7007 6.53027 12.9071C6.69027 13.1134 6.96012 13.1134 7.12012 12.9071L11.7603 7.46407C11.7603 7.46407 11.8203 7.4253 11.8403 7.38661C11.9203 7.28342 11.9604 7.14164 11.9604 6.99976C11.9604 6.85788 11.9203 6.71593 11.8403 6.61275C11.8103 6.57405 11.78 6.56108 11.75 6.53528L7.11035 1.09228C6.95035 0.885907 6.68002 0.885907 6.52002 1.09228C6.36002 1.29865 6.36002 1.64686 6.52002 1.85323L10.4404 6.44506H0.42041C0.18041 6.44506 -0.00976562 6.6902 -0.00976562 6.99976" fill="black"/>
</svg>
