<svg width="17" height="17" viewBox="0 0 17 17" fill="none" xmlns="http://www.w3.org/2000/svg">
<path d="M15.8802 12.1899C15.6402 12.0199 13.01 10.2601 12.68 10.0601C12.54 9.97006 12.37 9.92993 12.18 9.92993C11.94 9.92993 11.67 9.99989 11.41 10.1399C11.16 10.2699 10.3901 10.7099 10.0101 10.9299C9.68005 10.6999 8.89998 10.0999 7.67998 8.86987C6.45998 7.64987 5.86017 6.86003 5.63017 6.53003C5.84017 6.15003 6.27996 5.37988 6.40996 5.12988C6.65996 4.64988 6.69003 4.16985 6.49003 3.84985C6.30003 3.54985 4.54992 0.919922 4.36992 0.669922C4.19992 0.429922 3.90011 0.310059 3.57011 0.310059C3.31011 0.310059 3.02984 0.390059 2.78984 0.560059C2.76984 0.580059 0.449781 2.22994 0.479781 3.18994C0.569781 5.87994 3.17013 9.03997 5.34013 11.22C7.51013 13.4 10.6599 16.0099 13.3499 16.0999H13.3699C14.3099 16.0999 15.9698 13.81 15.9798 13.78C16.4198 13.16 16.2602 12.4699 15.8602 12.1899H15.8802ZM15.2 13.2C14.58 14.07 13.6901 14.9699 13.3401 15.0999C11.5001 15.0099 8.90984 13.39 6.03984 10.51C3.17984 7.63001 1.56001 5.03994 1.47001 3.18994C1.59001 2.83994 2.4999 1.95008 3.3499 1.33008C3.4099 1.29008 3.48986 1.26001 3.55986 1.26001C3.57986 1.26001 3.5899 1.26001 3.5999 1.26001C3.8799 1.66001 5.36017 3.92009 5.63017 4.34009C5.63017 4.38009 5.62007 4.49991 5.53007 4.65991C5.44007 4.82991 5.16005 5.33003 4.76005 6.03003L4.45 6.57007L4.80986 7.08008C5.07986 7.46008 5.71002 8.29005 6.97002 9.55005C8.23001 10.82 9.05998 11.45 9.42998 11.72L9.93974 12.0801L10.4798 11.77C11.0098 11.47 11.6399 11.11 11.8499 11C12.0199 10.91 12.13 10.9099 12.16 10.9099C12.16 10.9099 12.1597 10.9099 12.1697 10.9099C12.5497 11.1499 14.8398 12.68 15.2498 12.96C15.2498 13 15.25 13.0899 15.18 13.1899L15.2 13.2Z" fill="black"/>
</svg>
