<svg width="16" height="14" viewBox="0 0 16 14" fill="none" xmlns="http://www.w3.org/2000/svg">
<path d="M15.7202 13.0201V1.19999C15.7202 1.06999 15.6801 0.949891 15.5801 0.849891C15.4801 0.749891 15.34 0.699998 15.21 0.709998H0.510254C0.380254 0.709998 0.240137 0.739891 0.140137 0.849891C0.0401367 0.949891 0 1.06999 0 1.19999V13.0201C0 13.2901 0.220234 13.51 0.490234 13.51H15.2402C15.5102 13.51 15.73 13.2901 15.73 13.0201H15.7202ZM13.8403 1.68998L7.86035 6.49003L1.88037 1.68998H13.8501H13.8403ZM14.7402 12.0301C14.7402 12.3001 14.52 12.5201 14.25 12.5201H1.47021C1.20021 12.5201 0.97998 12.3001 0.97998 12.0301V2.19999L7.49023 7.41996C7.49023 7.41996 7.50025 7.45 7.51025 7.46C7.61025 7.56 7.73035 7.59989 7.86035 7.59989C7.99035 7.59989 8.11996 7.56 8.20996 7.46C8.21996 7.45 8.21998 7.43996 8.22998 7.41996L14.7402 2.19999V12.0301Z" fill="black"/>
</svg>
