<?xml version="1.0" encoding="UTF-8"?>
<svg id="Layer_2" data-name="Layer 2" xmlns="http://www.w3.org/2000/svg" viewBox="0 0 55.67 55.67">
  <defs>
    <style>
      .cls-1 {
        fill: #010101;
      }
    </style>
  </defs>
  <g id="Layer_1-2" data-name="Layer 1">
    <path class="cls-1" d="m29.42,52.45v-10.86l12.18-12.18h10.86c-.79,12.34-10.69,22.25-23.04,23.04M3.22,29.42h10.86l12.17,12.18v10.86c-12.34-.79-22.25-10.69-23.03-23.04M26.25,3.22v10.86l-12.18,12.18H3.22C4,13.91,13.91,4,26.25,3.22m1.58,35.49l-10.87-10.87,10.87-10.87,10.87,10.87-10.87,10.87Zm24.62-12.45h-10.86l-12.18-12.18V3.22c12.35.79,22.25,10.69,23.04,23.04M27.84,0C12.49,0,0,12.49,0,27.84s12.49,27.84,27.84,27.84,27.84-12.49,27.84-27.84S43.18,0,27.84,0"/>
  </g>
</svg>