<svg xmlns="http://www.w3.org/2000/svg" viewBox="0 0 459.78 57.19" id="TartuNLP_logo">
<defs>
<style>
	.cls-1{fill:#ef6650;}.cls-2{fill:#7268d8;}.cls-3{fill:#e0b12b;}
</style>
</defs>
<title>Tartunlp_logo</title>
<g id="Layer_2" data-name="Layer 2">
<g id="Layer_1-2" data-name="Layer 1">
<circle cx="253.13" cy="50.76" r="5.56"/>
<circle cx="253.13" cy="39.65" r="5.56"/>
<circle cx="253.13" cy="28.53" r="5.56"/>
<circle cx="274.32" cy="28.53" r="5.56"/>
<circle cx="285.44" cy="39.65" r="5.56"/>
<circle cx="253.13" cy="17.42" r="5.56"/>
<circle class="cls-1" cx="264.24" cy="17.42" r="5.56"/>
<circle cx="253.13" cy="6.37" r="5.56"/>
<circle cx="296.81" cy="50.76" r="5.56"/>
<circle cx="296.81" cy="39.65" r="5.56"/>
<circle cx="296.81" cy="28.53" r="5.56"/>
<circle cx="296.81" cy="17.42" r="5.56"/>
<circle cx="296.81" cy="6.37" r="5.56"/>
<circle cx="315.41" cy="50.76" r="5.56"/>
<circle cx="326.61" cy="50.76" r="5.56"/>
<circle cx="337.72" cy="50.76" r="5.56"/>
<circle class="cls-2" cx="315.41" cy="39.65" r="5.56"/>
<circle cx="315.41" cy="28.53" r="5.56"/>
<circle cx="315.41" cy="17.42" r="5.56"/>
<circle cx="315.41" cy="6.37" r="5.56"/>
<circle cx="353.79" cy="50.76" r="5.56"/>
<circle class="cls-1" cx="420.45" cy="50.76" r="5.56"/>
<circle cx="353.79" cy="39.65" r="5.56"/>
<circle cx="364.9" cy="39.65" r="5.56"/>
<circle cx="376.08" cy="39.65" r="5.56"/>
<circle class="cls-2" cx="443.13" cy="39.65" r="5.56"/>
<circle cx="353.79" cy="28.53" r="5.56"/>
<circle cx="353.79" cy="17.42" r="5.56"/>
<circle cx="398.18" cy="17.42" r="5.56"/>
<circle class="cls-3" cx="420.51" cy="17.42" r="5.56"/>
<circle class="cls-2" cx="431.61" cy="6.27" r="5.56"/>
<circle cx="398.18" cy="28.53" r="5.56"/>
<circle class="cls-3" cx="431.82" cy="28.53" r="5.56"/>
<circle class="cls-1" cx="454.23" cy="28.53" r="5.56"/>
<circle class="cls-3" cx="353.79" cy="6.37" r="5.56"/>
<circle cx="364.9" cy="6.37" r="5.56"/>
<circle cx="376.01" cy="6.37" r="5.56"/>
<circle cx="387.06" cy="39.65" r="5.56"/>
<circle cx="387" cy="6.37" r="5.56"/>
<path d="M17.69,56.33V11.23H0V1H46.78V11.23H29v45.1Z"/>
<path d="M80.31,56.33l-3.1-7.21H54.57l-3.1,7.21H39.32L64.05,0h3.77L92.46,56.33Zm-7-16.51L65.89,21.13,58.51,39.82Z"/>
<path d="M143.35,56.33H130.61L116.27,36.8H108V56.33H96.66V1h20.79Q126.17,1,131.78,6a16.41,16.41,0,0,1,5.62,12.91,17.51,17.51,0,0,1-2.56,9.35,17,17,0,0,1-7.17,6.41ZM108,11V26.83h9.48a8.44,8.44,0,0,0,6.16-2.18,7.75,7.75,0,0,0,2.22-5.79,7.48,7.48,0,0,0-2.31-5.7A8.47,8.47,0,0,0,117.45,11Z"/>
<path d="M159,56.33V11.23H141.34V1h46.77V11.23H170.34v45.1Z"/>
<path d="M193.39,33.45V1h11.32V34.29q0,6,3.35,9.26a13.42,13.42,0,0,0,17.65,0Q229,40.24,229,34.29V1h11.32V33.45q0,10.81-6.62,17.35t-16.85,6.54q-10.32,0-16.9-6.54T193.39,33.45Z"/>
</g>
</g>
</svg>
